<svg width="1200" height="400" viewBox="0 0 1200 400" xmlns="http://www.w3.org/2000/svg">
  <defs>
    <radialGradient id="cosmicGrad" cx="0.5" cy="0.5" r="0.8">
      <stop offset="0%" style="stop-color:#1e1b4b;stop-opacity:1" />
      <stop offset="60%" style="stop-color:#312e81;stop-opacity:0.8" />
      <stop offset="100%" style="stop-color:#1e1b4b;stop-opacity:1" />
    </radialGradient>
    <radialGradient id="starGlow" cx="0.5" cy="0.5" r="0.5">
      <stop offset="0%" style="stop-color:#fbbf24;stop-opacity:1" />
      <stop offset="50%" style="stop-color:#f59e0b;stop-opacity:0.6" />
      <stop offset="100%" style="stop-color:#f59e0b;stop-opacity:0" />
    </radialGradient>
    <linearGradient id="moonGrad" x1="0" y1="0" x2="1" y2="1">
      <stop offset="0%" style="stop-color:#e5e7eb" />
      <stop offset="100%" style="stop-color:#9ca3af" />
    </linearGradient>
  </defs>
  
  <!-- Deep space background -->
  <rect width="1200" height="400" fill="url(#cosmicGrad)"/>
  
  <!-- Constellation lines -->
  <g stroke="#6366f1" stroke-width="1" opacity="0.3" fill="none">
    <path d="M150 80 L250 120 L350 90 L420 140 L380 200"/>
    <path d="M600 60 L700 100 L800 80 L850 130"/>
    <path d="M950 70 L1050 110 L1100 90"/>
  </g>
  
  <!-- Stars -->
  <g>
    <!-- Major stars -->
    <circle cx="150" cy="80" r="3" fill="url(#starGlow)"/>
    <circle cx="250" cy="120" r="2.5" fill="url(#starGlow)"/>
    <circle cx="350" cy="90" r="3" fill="url(#starGlow)"/>
    <circle cx="420" cy="140" r="2" fill="url(#starGlow)"/>
    <circle cx="380" cy="200" r="2.5" fill="url(#starGlow)"/>
    <circle cx="600" cy="60" r="3" fill="url(#starGlow)"/>
    <circle cx="700" cy="100" r="2" fill="url(#starGlow)"/>
    <circle cx="800" cy="80" r="2.5" fill="url(#starGlow)"/>
    <circle cx="850" cy="130" r="2" fill="url(#starGlow)"/>
    <circle cx="950" cy="70" r="3" fill="url(#starGlow)"/>
    <circle cx="1050" cy="110" r="2" fill="url(#starGlow)"/>
    <circle cx="1100" cy="90" r="2.5" fill="url(#starGlow)"/>
    
    <!-- Background stars -->
    <circle cx="100" cy="200" r="1.5" fill="#fbbf24" opacity="0.6"/>
    <circle cx="300" cy="300" r="1" fill="#fbbf24" opacity="0.4"/>
    <circle cx="500" cy="250" r="1.5" fill="#fbbf24" opacity="0.5"/>
    <circle cx="750" cy="320" r="1" fill="#fbbf24" opacity="0.4"/>
    <circle cx="900" cy="280" r="1.5" fill="#fbbf24" opacity="0.6"/>
    <circle cx="1150" cy="250" r="1" fill="#fbbf24" opacity="0.4"/>
    <circle cx="200" cy="350" r="1" fill="#fbbf24" opacity="0.3"/>
    <circle cx="450" cy="350" r="1.5" fill="#fbbf24" opacity="0.5"/>
    <circle cx="650" cy="360" r="1" fill="#fbbf24" opacity="0.4"/>
    <circle cx="850" cy="340" r="1" fill="#fbbf24" opacity="0.3"/>
    <circle cx="1000" cy="350" r="1.5" fill="#fbbf24" opacity="0.5"/>
  </g>
  
  <!-- Moon -->
  <circle cx="1000" cy="80" r="25" fill="url(#moonGrad)" opacity="0.8"/>
  <circle cx="995" cy="75" r="3" fill="#6b7280" opacity="0.4"/>
  <circle cx="1005" cy="85" r="2" fill="#6b7280" opacity="0.3"/>
  <circle cx="990" cy="90" r="1.5" fill="#6b7280" opacity="0.4"/>
  
  <!-- Zodiac wheel in background -->
  <g transform="translate(600,200)" opacity="0.1">
    <circle r="120" fill="none" stroke="#fbbf24" stroke-width="2"/>
    <circle r="100" fill="none" stroke="#fbbf24" stroke-width="1"/>
    <circle r="80" fill="none" stroke="#fbbf24" stroke-width="1"/>
    <!-- Zodiac divisions -->
    <g stroke="#fbbf24" stroke-width="1">
      <line x1="0" y1="-120" x2="0" y2="-80"/>
      <line x1="60" y1="-103.9" x2="50" y2="-86.6"/>
      <line x1="103.9" y1="-60" x2="86.6" y2="-50"/>
      <line x1="120" y1="0" x2="80" y2="0"/>
      <line x1="103.9" y1="60" x2="86.6" y2="50"/>
      <line x1="60" y1="103.9" x2="50" y2="86.6"/>
      <line x1="0" y1="120" x2="0" y2="80"/>
      <line x1="-60" y1="103.9" x2="-50" y2="86.6"/>
      <line x1="-103.9" y1="60" x2="-86.6" y2="50"/>
      <line x1="-120" y1="0" x2="-80" y2="0"/>
      <line x1="-103.9" y1="-60" x2="-86.6" y2="-50"/>
      <line x1="-60" y1="-103.9" x2="-50" y2="-86.6"/>
    </g>
  </g>
  
  <!-- Mystical orbs -->
  <g opacity="0.3">
    <circle cx="100" cy="100" r="40" fill="none" stroke="#8b5cf6" stroke-width="2"/>
    <circle cx="100" cy="100" r="30" fill="none" stroke="#8b5cf6" stroke-width="1"/>
    <circle cx="100" cy="100" r="20" fill="none" stroke="#8b5cf6" stroke-width="1"/>
    
    <circle cx="1100" cy="300" r="35" fill="none" stroke="#06b6d4" stroke-width="2"/>
    <circle cx="1100" cy="300" r="25" fill="none" stroke="#06b6d4" stroke-width="1"/>
    
    <circle cx="300" cy="320" r="30" fill="none" stroke="#10b981" stroke-width="2"/>
    <circle cx="300" cy="320" r="20" fill="none" stroke="#10b981" stroke-width="1"/>
  </g>
  
  <!-- Shooting stars -->
  <g opacity="0.4">
    <path d="M50 150 L150 120" stroke="#fbbf24" stroke-width="2" fill="none"/>
    <circle cx="150" cy="120" r="2" fill="#fbbf24"/>
    
    <path d="M1000 200 L1100 170" stroke="#fbbf24" stroke-width="2" fill="none"/>
    <circle cx="1100" cy="170" r="2" fill="#fbbf24"/>
  </g>
  
  <!-- Central mystical symbol -->
  <g transform="translate(600,200)" opacity="0.15">
    <circle r="50" fill="none" stroke="#fbbf24" stroke-width="3"/>
    <circle r="30" fill="none" stroke="#fbbf24" stroke-width="2"/>
    <circle r="10" fill="#fbbf24"/>
    <!-- Star of David -->
    <polygon points="0,-25 14.43,-7.5 14.43,7.5 0,25 -14.43,7.5 -14.43,-7.5" 
             fill="none" stroke="#fbbf24" stroke-width="2"/>
    <polygon points="0,25 14.43,7.5 14.43,-7.5 0,-25 -14.43,-7.5 -14.43,7.5" 
             fill="none" stroke="#fbbf24" stroke-width="2"/>
  </g>
</svg>